<svg width="28" height="29" viewBox="0 0 28 29" fill="none" xmlns="http://www.w3.org/2000/svg">
<path opacity="0.24" d="M14 28.1857C21.732 28.1857 28 21.8953 28 14.1357C28 6.37612 21.732 0.0857239 14 0.0857239C6.26801 0.0857239 0 6.37612 0 14.1357C0 21.8953 6.26801 28.1857 14 28.1857Z" fill="black"/>
<path fill-rule="evenodd" clip-rule="evenodd" d="M16.0016 8.78277L16.5362 9.32371C16.712 9.51126 16.7999 9.73015 16.7999 9.98012C16.7999 10.2351 16.712 10.4516 16.5362 10.6295L13.0718 14.1357L16.5361 17.6419C16.7119 17.8199 16.7998 18.0363 16.7998 18.2912C16.7998 18.5413 16.7119 18.7602 16.5361 18.9477L16.0015 19.4816C15.821 19.6643 15.6047 19.7557 15.3528 19.7557C15.0962 19.7557 14.8824 19.6642 14.7113 19.4816L10.0708 14.785C9.89022 14.6118 9.79993 14.3955 9.79993 14.1357C9.79993 13.8808 9.89022 13.662 10.0708 13.4793L14.7113 8.78277C14.8872 8.60479 15.101 8.51571 15.3528 8.51571C15.6 8.51571 15.8162 8.60479 16.0016 8.78277Z" fill="white"/>
</svg>
