<svg width="28" height="29" viewBox="0 0 28 29" fill="none" xmlns="http://www.w3.org/2000/svg">
<path opacity="0.24" d="M14 28.1857C21.732 28.1857 28 21.8953 28 14.1357C28 6.37612 21.732 0.0857239 14 0.0857239C6.26801 0.0857239 0 6.37612 0 14.1357C0 21.8953 6.26801 28.1857 14 28.1857Z" fill="black"/>
<path fill-rule="evenodd" clip-rule="evenodd" d="M11.9984 8.78277L11.4637 9.32371C11.2879 9.51126 11.2 9.73015 11.2 9.98012C11.2 10.2351 11.2879 10.4516 11.4637 10.6295L14.9281 14.1357L11.4638 17.6419C11.288 17.8199 11.2001 18.0363 11.2001 18.2912C11.2001 18.5413 11.288 18.7602 11.4638 18.9477L11.9985 19.4816C12.179 19.6643 12.3952 19.7557 12.6471 19.7557C12.9038 19.7557 13.1176 19.6642 13.2886 19.4816L17.9291 14.785C18.1097 14.6118 18.2 14.3955 18.2 14.1357C18.2 13.8808 18.1097 13.662 17.9291 13.4793L13.2886 8.78277C13.1128 8.60479 12.8989 8.51571 12.6471 8.51571C12.4 8.51571 12.1838 8.60479 11.9984 8.78277Z" fill="white"/>
</svg>
